<mxfile host="app.diagrams.net" modified="2023-11-06T17:39:14.991Z" agent="Mozilla/5.0 (Windows NT 10.0; Win64; x64) AppleWebKit/537.36 (KHTML, like Gecko) Chrome/116.0.0.0 Safari/537.36 OPR/102.0.0.0" etag="sB2hkDq-fKNyFQ1AShqQ" version="22.0.8" type="device">
  <diagram name="Страница — 1" id="MQ_Sf9FGrjqhgtXzqlnl">
    <mxGraphModel dx="1187" dy="695" grid="1" gridSize="5" guides="1" tooltips="1" connect="1" arrows="1" fold="1" page="1" pageScale="1" pageWidth="1169" pageHeight="827" math="0" shadow="0">
      <root>
        <mxCell id="0" />
        <mxCell id="1" parent="0" />
        <mxCell id="35reQIlaGCElsCX17goQ-16" value="" style="endArrow=classic;html=1;rounded=0;" edge="1" parent="1">
          <mxGeometry width="50" height="50" relative="1" as="geometry">
            <mxPoint x="240" y="640" as="sourcePoint" />
            <mxPoint x="240" y="117.00000762939453" as="targetPoint" />
          </mxGeometry>
        </mxCell>
        <mxCell id="35reQIlaGCElsCX17goQ-17" value="" style="endArrow=classic;html=1;rounded=0;" edge="1" parent="1">
          <mxGeometry width="50" height="50" relative="1" as="geometry">
            <mxPoint x="240" y="640" as="sourcePoint" />
            <mxPoint x="1064.9230018028845" y="640" as="targetPoint" />
          </mxGeometry>
        </mxCell>
        <mxCell id="35reQIlaGCElsCX17goQ-18" value="&lt;font style=&quot;font-size: 24px;&quot;&gt;Разработчик&lt;br style=&quot;border-color: var(--border-color);&quot;&gt;22&lt;/font&gt;" style="rounded=0;whiteSpace=wrap;html=1;" vertex="1" parent="1">
          <mxGeometry x="90" y="490" width="150" height="90" as="geometry" />
        </mxCell>
        <mxCell id="35reQIlaGCElsCX17goQ-19" value="&lt;span style=&quot;font-size: 24px;&quot;&gt;Разработчик&lt;br&gt;23&lt;br&gt;&lt;/span&gt;" style="rounded=0;whiteSpace=wrap;html=1;" vertex="1" parent="1">
          <mxGeometry x="90" y="350" width="150" height="90" as="geometry" />
        </mxCell>
        <mxCell id="35reQIlaGCElsCX17goQ-20" value="&lt;font style=&quot;font-size: 24px;&quot;&gt;Разработчик&lt;br style=&quot;border-color: var(--border-color);&quot;&gt;21&lt;/font&gt;" style="rounded=0;whiteSpace=wrap;html=1;" vertex="1" parent="1">
          <mxGeometry x="90" y="210" width="150" height="90" as="geometry" />
        </mxCell>
        <mxCell id="35reQIlaGCElsCX17goQ-21" value="&lt;font style=&quot;font-size: 24px;&quot;&gt;Разработчики&lt;/font&gt;" style="text;html=1;strokeColor=none;fillColor=none;align=center;verticalAlign=middle;whiteSpace=wrap;rounded=0;" vertex="1" parent="1">
          <mxGeometry x="80" y="60" width="170" height="60" as="geometry" />
        </mxCell>
        <mxCell id="35reQIlaGCElsCX17goQ-22" value="&lt;font style=&quot;font-size: 24px;&quot;&gt;Время в днях&lt;/font&gt;" style="text;html=1;strokeColor=none;fillColor=none;align=center;verticalAlign=middle;whiteSpace=wrap;rounded=0;" vertex="1" parent="1">
          <mxGeometry x="910" y="660" width="170" height="60" as="geometry" />
        </mxCell>
        <mxCell id="35reQIlaGCElsCX17goQ-23" value="&lt;font style=&quot;font-size: 24px;&quot;&gt;П2&lt;br&gt;8190 руб.&lt;br&gt;&lt;/font&gt;" style="rounded=0;whiteSpace=wrap;html=1;" vertex="1" parent="1">
          <mxGeometry x="240" y="210" width="173" height="90" as="geometry" />
        </mxCell>
        <mxCell id="35reQIlaGCElsCX17goQ-25" value="117" style="text;html=1;strokeColor=none;fillColor=none;align=center;verticalAlign=middle;whiteSpace=wrap;rounded=0;fontSize=20;" vertex="1" parent="1">
          <mxGeometry x="385" y="650" width="60" height="30" as="geometry" />
        </mxCell>
        <mxCell id="35reQIlaGCElsCX17goQ-26" value="162" style="text;html=1;strokeColor=none;fillColor=none;align=center;verticalAlign=middle;whiteSpace=wrap;rounded=0;fontSize=20;" vertex="1" parent="1">
          <mxGeometry x="460" y="650" width="60" height="30" as="geometry" />
        </mxCell>
        <mxCell id="35reQIlaGCElsCX17goQ-27" value="226" style="text;html=1;strokeColor=none;fillColor=none;align=center;verticalAlign=middle;whiteSpace=wrap;rounded=0;fontSize=20;" vertex="1" parent="1">
          <mxGeometry x="570" y="650" width="60" height="30" as="geometry" />
        </mxCell>
        <mxCell id="35reQIlaGCElsCX17goQ-29" value="309" style="text;html=1;strokeColor=none;fillColor=none;align=center;verticalAlign=middle;whiteSpace=wrap;rounded=0;fontSize=20;" vertex="1" parent="1">
          <mxGeometry x="695" y="650" width="60" height="30" as="geometry" />
        </mxCell>
        <mxCell id="35reQIlaGCElsCX17goQ-30" value="346" style="text;html=1;strokeColor=none;fillColor=none;align=center;verticalAlign=middle;whiteSpace=wrap;rounded=0;fontSize=20;" vertex="1" parent="1">
          <mxGeometry x="760" y="650" width="60" height="30" as="geometry" />
        </mxCell>
        <mxCell id="35reQIlaGCElsCX17goQ-31" value="400" style="text;html=1;strokeColor=none;fillColor=none;align=center;verticalAlign=middle;whiteSpace=wrap;rounded=0;fontSize=20;" vertex="1" parent="1">
          <mxGeometry x="850" y="650" width="60" height="30" as="geometry" />
        </mxCell>
        <mxCell id="35reQIlaGCElsCX17goQ-32" value="450" style="text;html=1;strokeColor=none;fillColor=none;align=center;verticalAlign=middle;whiteSpace=wrap;rounded=0;fontSize=20;" vertex="1" parent="1">
          <mxGeometry x="930" y="650" width="60" height="30" as="geometry" />
        </mxCell>
        <mxCell id="35reQIlaGCElsCX17goQ-34" value="" style="endArrow=none;html=1;rounded=0;exitX=0.5;exitY=0;exitDx=0;exitDy=0;" edge="1" parent="1">
          <mxGeometry width="50" height="50" relative="1" as="geometry">
            <mxPoint x="412.62" y="650" as="sourcePoint" />
            <mxPoint x="412.62" y="630" as="targetPoint" />
          </mxGeometry>
        </mxCell>
        <mxCell id="35reQIlaGCElsCX17goQ-35" value="" style="endArrow=none;html=1;rounded=0;exitX=0.5;exitY=0;exitDx=0;exitDy=0;" edge="1" parent="1">
          <mxGeometry width="50" height="50" relative="1" as="geometry">
            <mxPoint x="490" y="650" as="sourcePoint" />
            <mxPoint x="490" y="630" as="targetPoint" />
          </mxGeometry>
        </mxCell>
        <mxCell id="35reQIlaGCElsCX17goQ-36" value="" style="endArrow=none;html=1;rounded=0;exitX=0.5;exitY=0;exitDx=0;exitDy=0;" edge="1" parent="1">
          <mxGeometry width="50" height="50" relative="1" as="geometry">
            <mxPoint x="600" y="650" as="sourcePoint" />
            <mxPoint x="600" y="630" as="targetPoint" />
          </mxGeometry>
        </mxCell>
        <mxCell id="35reQIlaGCElsCX17goQ-38" value="" style="endArrow=none;html=1;rounded=0;exitX=0.5;exitY=0;exitDx=0;exitDy=0;" edge="1" parent="1">
          <mxGeometry width="50" height="50" relative="1" as="geometry">
            <mxPoint x="725" y="650" as="sourcePoint" />
            <mxPoint x="725" y="630" as="targetPoint" />
          </mxGeometry>
        </mxCell>
        <mxCell id="35reQIlaGCElsCX17goQ-39" value="" style="endArrow=none;html=1;rounded=0;exitX=0.5;exitY=0;exitDx=0;exitDy=0;" edge="1" parent="1">
          <mxGeometry width="50" height="50" relative="1" as="geometry">
            <mxPoint x="789.9999999999999" y="650" as="sourcePoint" />
            <mxPoint x="789.9999999999999" y="630" as="targetPoint" />
          </mxGeometry>
        </mxCell>
        <mxCell id="35reQIlaGCElsCX17goQ-40" value="" style="endArrow=none;html=1;rounded=0;exitX=0.5;exitY=0;exitDx=0;exitDy=0;" edge="1" parent="1">
          <mxGeometry width="50" height="50" relative="1" as="geometry">
            <mxPoint x="879.8499999999999" y="650" as="sourcePoint" />
            <mxPoint x="879.8499999999999" y="630" as="targetPoint" />
          </mxGeometry>
        </mxCell>
        <mxCell id="35reQIlaGCElsCX17goQ-41" value="" style="endArrow=none;html=1;rounded=0;exitX=0.5;exitY=0;exitDx=0;exitDy=0;" edge="1" parent="1">
          <mxGeometry width="50" height="50" relative="1" as="geometry">
            <mxPoint x="959.8499999999999" y="650" as="sourcePoint" />
            <mxPoint x="959.8499999999999" y="630" as="targetPoint" />
          </mxGeometry>
        </mxCell>
        <mxCell id="35reQIlaGCElsCX17goQ-42" value="" style="endArrow=none;html=1;rounded=0;exitX=0.5;exitY=0;exitDx=0;exitDy=0;" edge="1" parent="1">
          <mxGeometry width="50" height="50" relative="1" as="geometry">
            <mxPoint x="1040" y="650" as="sourcePoint" />
            <mxPoint x="1040" y="630" as="targetPoint" />
          </mxGeometry>
        </mxCell>
        <mxCell id="35reQIlaGCElsCX17goQ-43" value="500" style="text;html=1;strokeColor=none;fillColor=none;align=center;verticalAlign=middle;whiteSpace=wrap;rounded=0;fontSize=20;" vertex="1" parent="1">
          <mxGeometry x="1010" y="650" width="60" height="30" as="geometry" />
        </mxCell>
        <mxCell id="35reQIlaGCElsCX17goQ-45" value="&lt;font style=&quot;font-size: 24px;&quot;&gt;П4&lt;br&gt;7630 руб.&lt;br&gt;&lt;/font&gt;" style="rounded=0;whiteSpace=wrap;html=1;" vertex="1" parent="1">
          <mxGeometry x="413" y="210" width="187" height="90" as="geometry" />
        </mxCell>
        <mxCell id="35reQIlaGCElsCX17goQ-49" value="" style="endArrow=none;dashed=1;html=1;rounded=0;entryX=0;entryY=1;entryDx=0;entryDy=0;" edge="1" parent="1" target="35reQIlaGCElsCX17goQ-47">
          <mxGeometry width="50" height="50" relative="1" as="geometry">
            <mxPoint x="490" y="640" as="sourcePoint" />
            <mxPoint x="540" y="480" as="targetPoint" />
          </mxGeometry>
        </mxCell>
        <mxCell id="35reQIlaGCElsCX17goQ-50" value="" style="endArrow=none;dashed=1;html=1;rounded=0;entryX=1;entryY=1;entryDx=0;entryDy=0;" edge="1" parent="1" target="35reQIlaGCElsCX17goQ-23">
          <mxGeometry width="50" height="50" relative="1" as="geometry">
            <mxPoint x="413" y="640" as="sourcePoint" />
            <mxPoint x="540" y="370" as="targetPoint" />
          </mxGeometry>
        </mxCell>
        <mxCell id="35reQIlaGCElsCX17goQ-51" value="" style="endArrow=none;dashed=1;html=1;rounded=0;entryX=1;entryY=1;entryDx=0;entryDy=0;" edge="1" parent="1" target="35reQIlaGCElsCX17goQ-45">
          <mxGeometry width="50" height="50" relative="1" as="geometry">
            <mxPoint x="600" y="640" as="sourcePoint" />
            <mxPoint x="640" y="410" as="targetPoint" />
          </mxGeometry>
        </mxCell>
        <mxCell id="35reQIlaGCElsCX17goQ-46" value="&lt;font style=&quot;font-size: 24px;&quot;&gt;П1&lt;br&gt;7290 руб.&lt;br&gt;&lt;/font&gt;" style="rounded=0;whiteSpace=wrap;html=1;" vertex="1" parent="1">
          <mxGeometry x="240" y="350" width="250" height="90" as="geometry" />
        </mxCell>
        <mxCell id="35reQIlaGCElsCX17goQ-47" value="&lt;font style=&quot;font-size: 24px;&quot;&gt;П3&lt;br&gt;6615 руб.&lt;br&gt;&lt;/font&gt;" style="rounded=0;whiteSpace=wrap;html=1;" vertex="1" parent="1">
          <mxGeometry x="490" y="350" width="235" height="90" as="geometry" />
        </mxCell>
        <mxCell id="35reQIlaGCElsCX17goQ-52" value="" style="endArrow=none;dashed=1;html=1;rounded=0;" edge="1" parent="1">
          <mxGeometry width="50" height="50" relative="1" as="geometry">
            <mxPoint x="790" y="180" as="sourcePoint" />
            <mxPoint x="790" y="640" as="targetPoint" />
          </mxGeometry>
        </mxCell>
        <mxCell id="35reQIlaGCElsCX17goQ-54" value="" style="endArrow=none;dashed=1;html=1;rounded=0;entryX=1;entryY=1;entryDx=0;entryDy=0;" edge="1" parent="1" target="35reQIlaGCElsCX17goQ-47">
          <mxGeometry width="50" height="50" relative="1" as="geometry">
            <mxPoint x="725" y="640" as="sourcePoint" />
            <mxPoint x="765" y="495" as="targetPoint" />
          </mxGeometry>
        </mxCell>
        <mxCell id="35reQIlaGCElsCX17goQ-44" value="&lt;font style=&quot;font-size: 24px;&quot;&gt;П5&lt;br&gt;19030 руб.&lt;br&gt;&lt;/font&gt;" style="rounded=0;whiteSpace=wrap;html=1;" vertex="1" parent="1">
          <mxGeometry x="240" y="490" width="550" height="90" as="geometry" />
        </mxCell>
      </root>
    </mxGraphModel>
  </diagram>
</mxfile>
